# Blender v2.79 (sub 0) OBJ File: 'kamakzy.blend'
# www.blender.org
mtllib mirrors.mtl
o Cube.004_Cube.001
v 4.061954 2.385948 2.223586
v 4.240796 2.243525 2.223586
v 4.119949 2.378479 2.223586
v 4.169512 2.357945 2.223586
v 4.208011 2.326641 2.223586
v 4.232092 2.288210 2.223586
v 4.240796 2.070584 2.223586
v 4.228866 2.065520 2.223586
v 4.240276 2.068594 2.223586
v 4.240013 2.068293 2.223586
v 4.236980 2.066749 2.223586
v 3.666702 2.065520 2.223586
v 3.666702 2.385948 2.223586
v -4.061954 2.385948 2.223586
v -4.240796 2.243525 2.223586
v -4.119949 2.378479 2.223586
v -4.169512 2.357945 2.223586
v -4.208011 2.326641 2.223586
v -4.232092 2.288210 2.223586
v -4.240796 2.070584 2.223586
v -4.228866 2.065520 2.223586
v -4.240276 2.068594 2.223586
v -4.240013 2.068293 2.223586
v -4.236980 2.066749 2.223586
v -3.666702 2.065520 2.223586
v -3.666702 2.385948 2.223586
vn -0.0000 0.0000 -1.0000
usemtl mirror
s off
f 13//1 1//1 3//1 4//1 5//1 6//1 2//1 7//1 9//1 10//1 11//1 8//1 12//1
f 26//1 25//1 21//1 24//1 23//1 22//1 20//1 15//1 19//1 18//1 17//1 16//1 14//1
